# xmcd
#
# Track frame offsets:
#  150
#  11331
#  21422
#  31689
#  39410
#  50660
#  63047
#  77027
#  92451
#  102562
#  112114
#  124568
#  138662
#  150208
#  160425
#  170694
#  181124
#  194863
#  205267
#  215197
#  224763
#  233829
#  245240
#  262160
#  271498
#
# Disc length: 3631 seconds
#
# Revision: 0
# Processed by: cddbd v1.5.1PL0 Copyright (c) Steve Scherf et al.
# Submitted via: AltoMP3_Maker 3.0
#
DISCID=750e2d19
DTITLE=Variés - Retro Country Vol. 2
DYEAR=1900
DGENRE=
TTITLE0=Sois fidèle et sincère
TTITLE1=Mon soleil c'est toi
TTITLE2=Jambalaya
TTITLE3=Je chante pour toi
TTITLE4=Tu gagnes toujours
TTITLE5=Bien mal parti
TTITLE6=Avec mon vieux tacot
TTITLE7=Je quitte mes parents
TTITLE8=J'ai fais un rêve
TTITLE9=J'suis fauché
TTITLE10=Avant de te connaître
TTITLE11=Ne me laisse pas t'aimer
TTITLE12=Pourquoi pas avec moi
TTITLE13=Un Canadien errant
TTITLE14=Je suis Charles Martineau
TTITLE15=Les hautes montagnes
TTITLE16=Un mur entre nos coeurs
TTITLE17=Ai-je trop attendu?
TTITLE18=Amusez-vous les enfants
TTITLE19=Le coeur ne vieillit pas
TTITLE20=La vieille église
TTITLE21=Qui t'appele
TTITLE22=Partons la mer est belle
TTITLE23=Je ne fais que pleurer
TTITLE24=La chanson la plus courte
EXTD=
EXTT0=
EXTT1=
EXTT2=
EXTT3=
EXTT4=
EXTT5=
EXTT6=
EXTT7=
EXTT8=
EXTT9=
EXTT10=
EXTT11=
EXTT12=
EXTT13=
EXTT14=
EXTT15=
EXTT16=
EXTT17=
EXTT18=
EXTT19=
EXTT20=
EXTT21=
EXTT22=
EXTT23=
EXTT24=
PLAYORDER=
